<svg width="504" height="976" viewBox="0 0 504 976" fill="none" xmlns="http://www.w3.org/2000/svg">
<g filter="url(#filter0_f_95_143)">
<circle cx="121.706" cy="121.706" r="121.706" transform="matrix(-1 0 0 1 137.827 366.273)" fill="#39C6FD"/>
</g>
<path d="M99.5998 531.446C99.7184 531.449 99.8355 531.418 99.9383 531.359C100.041 531.3 100.126 531.214 100.184 531.11L125.114 487.991C125.167 487.89 125.194 487.778 125.194 487.664C125.194 487.55 125.167 487.437 125.114 487.336C125.056 487.233 124.971 487.147 124.869 487.087C124.766 487.028 124.649 486.998 124.53 487H74.6872C74.5685 486.998 74.4515 487.028 74.3487 487.087C74.2458 487.147 74.161 487.233 74.1033 487.336C74.0506 487.437 74.0231 487.55 74.0231 487.664C74.0231 487.778 74.0506 487.89 74.1033 487.991L99.0336 531.163C99.0963 531.255 99.1812 531.328 99.2802 531.378C99.3792 531.427 99.4892 531.451 99.5998 531.446ZM123.38 488.274L99.5998 529.465L75.8373 488.274H123.38Z" fill="#39C6FD"/>
<path d="M74.6041 488.5C74.7202 488.5 74.8343 488.47 74.934 488.41C75.0338 488.351 75.1155 488.266 75.1703 488.163L100.101 444.991C100.162 444.893 100.194 444.779 100.194 444.664C100.194 444.548 100.162 444.435 100.101 444.336C100.043 444.233 99.9581 444.147 99.8553 444.087C99.7524 444.028 99.6354 443.998 99.5167 444H49.6738C49.5578 443.999 49.4437 444.03 49.3439 444.089C49.2441 444.149 49.1624 444.234 49.1076 444.336C49.0465 444.435 49.0141 444.548 49.0141 444.664C49.0141 444.779 49.0465 444.893 49.1076 444.991L74.0202 488.216C74.0846 488.31 74.1723 488.386 74.2747 488.435C74.377 488.485 74.4906 488.507 74.6041 488.5ZM98.3667 445.327L74.6041 486.447L50.8239 445.256L98.3667 445.327Z" fill="#39C6FD"/>
<path d="M149.516 531.446C149.632 531.447 149.746 531.416 149.846 531.357C149.945 531.298 150.027 531.212 150.082 531.11L175.101 487.991C175.162 487.893 175.194 487.779 175.194 487.664C175.194 487.548 175.162 487.434 175.101 487.336C175.044 487.235 174.962 487.151 174.863 487.092C174.763 487.033 174.65 487.001 174.534 487H124.745C124.629 486.999 124.514 487.03 124.415 487.089C124.315 487.149 124.233 487.234 124.178 487.336C124.117 487.434 124.085 487.548 124.085 487.664C124.085 487.779 124.117 487.893 124.178 487.991L149.091 531.163C149.139 531.236 149.202 531.299 149.275 531.348C149.348 531.397 149.43 531.43 149.516 531.446ZM173.296 488.274L149.516 529.465L125.735 488.274H173.296Z" fill="#39C6FD"/>
<path d="M149.599 531.472H199.53C199.649 531.474 199.766 531.444 199.869 531.385C199.971 531.325 200.056 531.239 200.114 531.136C200.167 531.035 200.194 530.922 200.194 530.808C200.194 530.694 200.167 530.582 200.114 530.481L175.184 487.309C175.121 487.214 175.035 487.136 174.935 487.082C174.835 487.028 174.723 487 174.609 487C174.495 487 174.383 487.028 174.282 487.082C174.182 487.136 174.097 487.214 174.034 487.309L149.103 530.481C149.051 530.582 149.023 530.694 149.023 530.808C149.023 530.922 149.051 531.035 149.103 531.136C149.153 531.227 149.224 531.305 149.31 531.364C149.396 531.422 149.495 531.459 149.599 531.472ZM198.292 530.145H150.837L174.617 488.972L198.292 530.145Z" fill="#39C6FD"/>
<path d="M74.6041 575.072C74.7202 575.073 74.8343 575.042 74.934 574.983C75.0338 574.923 75.1155 574.838 75.1703 574.736L100.101 531.492C100.162 531.394 100.194 531.281 100.194 531.165C100.194 531.049 100.162 530.936 100.101 530.838C100.043 530.734 99.9581 530.648 99.8553 530.589C99.7524 530.53 99.6354 530.499 99.5167 530.502H49.6738C49.5578 530.501 49.4437 530.532 49.3439 530.591C49.2441 530.65 49.1624 530.735 49.1076 530.838C49.0465 530.936 49.0141 531.049 49.0141 531.165C49.0141 531.281 49.0465 531.394 49.1076 531.492L74.0202 574.665C74.068 574.782 74.1485 574.882 74.2521 574.955C74.3557 575.027 74.4779 575.067 74.6041 575.072ZM98.3667 531.899L74.6041 573.09L50.8239 531.899H98.3667Z" fill="#39C6FD"/>
<path d="M125.004 488.115C125.12 488.116 125.235 488.085 125.334 488.025C125.434 487.966 125.516 487.881 125.571 487.779L150.501 444.606C150.562 444.508 150.594 444.394 150.594 444.279C150.594 444.163 150.562 444.05 150.501 443.951C150.445 443.85 150.363 443.766 150.263 443.707C150.164 443.648 150.05 443.616 149.935 443.615H100.233C100.117 443.614 100.003 443.645 99.9035 443.705C99.8037 443.764 99.722 443.849 99.6672 443.951C99.606 444.05 99.5736 444.163 99.5736 444.279C99.5736 444.394 99.606 444.508 99.6672 444.606L124.58 487.779C124.622 487.862 124.682 487.935 124.756 487.993C124.829 488.051 124.914 488.092 125.004 488.115ZM148.785 444.942L125.004 486.133L101.224 444.942H148.785Z" fill="#39C6FD"/>
<path d="M125.004 488.115H174.936C175.054 488.117 175.171 488.087 175.274 488.028C175.377 487.968 175.462 487.882 175.52 487.779C175.572 487.678 175.6 487.565 175.6 487.451C175.6 487.337 175.572 487.225 175.52 487.124L150.589 443.952C150.526 443.857 150.441 443.779 150.341 443.725C150.24 443.671 150.128 443.643 150.014 443.643C149.9 443.643 149.788 443.671 149.688 443.725C149.588 443.779 149.502 443.857 149.439 443.952L124.509 487.124C124.456 487.225 124.429 487.337 124.429 487.451C124.429 487.565 124.456 487.678 124.509 487.779C124.559 487.87 124.63 487.948 124.716 488.007C124.802 488.065 124.901 488.102 125.004 488.115ZM173.786 486.77H126.243L150.023 445.615L173.786 486.77Z" fill="#39C6FD"/>
<path d="M174.617 574.5C174.733 574.499 174.846 574.467 174.946 574.408C175.045 574.349 175.127 574.264 175.184 574.163L200.114 530.991C200.167 530.89 200.194 530.778 200.194 530.664C200.194 530.55 200.167 530.437 200.114 530.336C200.056 530.233 199.971 530.147 199.869 530.087C199.766 530.028 199.649 529.998 199.53 530H149.599C149.48 529.998 149.363 530.028 149.26 530.087C149.157 530.147 149.073 530.233 149.015 530.336C148.962 530.437 148.935 530.55 148.935 530.664C148.935 530.778 148.962 530.89 149.015 530.991L173.945 574.163C174.009 574.282 174.108 574.377 174.228 574.438C174.349 574.498 174.484 574.519 174.617 574.5ZM198.38 531.327L174.617 572.518L150.837 531.256L198.38 531.327Z" fill="#39C6FD"/>
<path d="M0.604141 617.446C0.719801 617.445 0.83312 617.414 0.932575 617.355C1.03203 617.296 1.11408 617.211 1.17035 617.11L26.1006 573.991C26.1618 573.893 26.1942 573.779 26.1942 573.664C26.1942 573.548 26.1618 573.435 26.1006 573.336C26.0429 573.233 25.9581 573.147 25.8553 573.087C25.7524 573.028 25.6354 572.998 25.5167 573H-24.3261C-24.4441 573.002 -24.5597 573.033 -24.6619 573.092C-24.7641 573.151 -24.8496 573.235 -24.91 573.336C-24.9628 573.437 -24.9903 573.55 -24.9903 573.664C-24.9903 573.778 -24.9628 573.89 -24.91 573.991L0.0202484 617.163C0.0845757 617.257 0.172262 617.333 0.274652 617.382C0.377045 617.432 0.490606 617.454 0.604141 617.446ZM24.4374 574.274L0.674931 615.465L-23.1053 574.274H24.4374Z" fill="#39C6FD"/>
<path d="M99.6048 444.609C99.7187 444.61 99.8309 444.581 99.9302 444.525C100.029 444.469 100.113 444.388 100.171 444.291L125.101 401.154C125.162 401.052 125.194 400.936 125.194 400.817C125.194 400.699 125.162 400.583 125.101 400.481C125.04 400.381 124.954 400.298 124.852 400.239C124.75 400.18 124.635 400.148 124.517 400.145H74.6745C74.5592 400.148 74.4466 400.18 74.3475 400.239C74.2483 400.298 74.1659 400.381 74.1083 400.481C74.0475 400.583 74.0154 400.699 74.0154 400.817C74.0154 400.936 74.0475 401.052 74.1083 401.154L99.0209 444.326C99.0876 444.417 99.1757 444.491 99.2775 444.54C99.3793 444.59 99.4917 444.613 99.6048 444.609ZM123.367 401.437L99.6048 442.627L75.8246 401.437H123.367Z" fill="#39C6FD"/>
<path d="M-49.3832 531.997H0.459757C0.576033 531.997 0.690514 531.968 0.792592 531.912C0.894671 531.857 0.981013 531.776 1.04362 531.678C1.09647 531.574 1.12402 531.459 1.12402 531.342C1.12402 531.225 1.09647 531.11 1.04362 531.006L-23.8867 487.763C-23.9496 487.668 -24.0351 487.59 -24.1354 487.536C-24.2357 487.482 -24.3478 487.454 -24.4617 487.454C-24.5756 487.454 -24.6877 487.482 -24.788 487.536C-24.8883 487.59 -24.9738 487.668 -25.0367 487.763L-49.967 530.935C-50.0199 531.039 -50.0474 531.154 -50.0474 531.271C-50.0474 531.388 -50.0199 531.503 -49.967 531.607C-49.9134 531.719 -49.831 531.813 -49.7283 531.882C-49.6256 531.95 -49.5064 531.99 -49.3832 531.997ZM-0.690344 530.67H-48.2331L-24.4528 489.426L-0.690344 530.67Z" fill="#39C6FD"/>
<path d="M74.6745 401.436H124.517C124.63 401.441 124.743 401.417 124.845 401.368C124.947 401.318 125.035 401.245 125.101 401.153C125.162 401.052 125.194 400.936 125.194 400.817C125.194 400.699 125.162 400.583 125.101 400.481L100.171 357.309C100.108 357.214 100.023 357.136 99.9223 357.082C99.8219 357.028 99.7098 357 99.596 357C99.4821 357 99.37 357.028 99.2697 357.082C99.1693 357.136 99.0839 357.214 99.0209 357.309L74.1083 400.481C74.0487 400.581 74.0166 400.694 74.0154 400.811C74.0143 400.927 74.044 401.041 74.1017 401.142C74.1593 401.243 74.2427 401.327 74.3434 401.385C74.4441 401.443 74.5583 401.473 74.6745 401.472V401.436ZM123.367 400.109H75.8246L99.6048 358.936L123.367 400.109Z" fill="#39C6FD"/>
<path d="M-24.4528 488.754H25.3901C25.5062 488.754 25.6205 488.724 25.7212 488.666C25.8219 488.608 25.9053 488.525 25.9629 488.424C26.0206 488.323 26.0503 488.209 26.0492 488.092C26.048 487.976 26.0159 487.862 25.9563 487.763L1.04366 444.59C0.980709 444.495 0.895283 444.418 0.794947 444.364C0.694611 444.31 0.582491 444.282 0.468618 444.282C0.354746 444.282 0.242653 444.31 0.142317 444.364C0.0419807 444.418 -0.0434742 444.495 -0.106419 444.59L-25.0367 487.763C-25.0975 487.864 -25.1296 487.981 -25.1296 488.099C-25.1296 488.217 -25.0975 488.334 -25.0367 488.435C-24.9741 488.533 -24.8878 488.614 -24.7857 488.669C-24.6836 488.725 -24.5691 488.754 -24.4528 488.754ZM24.24 487.427H-23.3204L0.459789 446.254L24.24 487.427Z" fill="#39C6FD"/>
<path d="M25.4182 574.464C25.5321 574.465 25.6443 574.436 25.7436 574.38C25.8429 574.324 25.9259 574.243 25.9844 574.146L50.9147 531.009C50.9755 530.907 51.0076 530.791 51.0076 530.672C51.0076 530.554 50.9755 530.438 50.9147 530.336C50.8558 530.237 50.7731 530.155 50.6742 530.096C50.5754 530.037 50.4634 530.004 50.3485 530H0.487873C0.372593 530.003 0.25996 530.035 0.160805 530.094C0.0616493 530.153 -0.0206947 530.236 -0.0783195 530.336C-0.139118 530.438 -0.171234 530.554 -0.171234 530.672C-0.171234 530.791 -0.139118 530.907 -0.0783195 531.009L24.8697 574.146C24.93 574.238 25.011 574.314 25.1062 574.37C25.2015 574.425 25.3083 574.457 25.4182 574.464ZM49.1984 531.292L25.4182 572.482L1.63795 531.292H49.1984Z" fill="#39C6FD"/>
<path d="M-24.4528 488.754C-24.3393 488.753 -24.2277 488.723 -24.1287 488.667C-24.0297 488.612 -23.9465 488.532 -23.8867 488.435L1.04362 445.298C1.09647 445.194 1.12402 445.079 1.12402 444.962C1.12402 444.845 1.09647 444.73 1.04362 444.626C0.981904 444.526 0.896213 444.442 0.794266 444.384C0.692319 444.325 0.577354 444.293 0.459757 444.29H-49.3832C-49.5008 444.293 -49.6157 444.325 -49.7177 444.384C-49.8196 444.442 -49.9053 444.526 -49.967 444.626C-50.0199 444.73 -50.0474 444.845 -50.0474 444.962C-50.0474 445.079 -50.0199 445.194 -49.967 445.298L-25.0367 488.47C-24.9701 488.562 -24.882 488.636 -24.7801 488.685C-24.6783 488.734 -24.5659 488.758 -24.4528 488.754ZM-0.690344 445.581L-24.4528 486.772L-48.2331 445.581H-0.690344Z" fill="#39C6FD"/>
<path d="M50.3203 358.499C50.4339 358.498 50.5454 358.469 50.6444 358.413C50.7434 358.357 50.8267 358.278 50.8865 358.181L75.8168 315.009C75.8776 314.907 75.9097 314.791 75.9097 314.672C75.9097 314.554 75.8776 314.438 75.8168 314.336C75.755 314.236 75.6693 314.153 75.5674 314.094C75.4654 314.035 75.3505 314.003 75.2329 314H25.39C25.2727 314.005 25.1583 314.038 25.0566 314.096C24.9549 314.155 24.869 314.237 24.8061 314.336C24.7532 314.44 24.7257 314.556 24.7257 314.672C24.7257 314.789 24.7532 314.904 24.8061 315.009L49.7364 358.216C49.803 358.308 49.8911 358.381 49.993 358.431C50.0948 358.48 50.2072 358.504 50.3203 358.499ZM74.1536 315.327L50.3203 356.447L26.5401 315.256L74.1536 315.327Z" fill="#39C6FD"/>
<path d="M-49.3832 445.581H0.459757C0.576033 445.581 0.690514 445.552 0.792592 445.496C0.894671 445.441 0.981013 445.36 1.04362 445.262C1.09647 445.158 1.12402 445.043 1.12402 444.926C1.12402 444.809 1.09647 444.694 1.04362 444.59L-23.8867 401.417C-23.9496 401.323 -24.0351 401.245 -24.1354 401.191C-24.2357 401.137 -24.3478 401.109 -24.4617 401.109C-24.5756 401.109 -24.6877 401.137 -24.788 401.191C-24.8883 401.245 -24.9738 401.323 -25.0367 401.417L-49.967 444.59C-50.0199 444.694 -50.0474 444.809 -50.0474 444.926C-50.0474 445.043 -50.0199 445.158 -49.967 445.262C-49.9044 445.36 -49.8181 445.441 -49.716 445.496C-49.6139 445.552 -49.4994 445.581 -49.3832 445.581ZM-0.690344 444.254H-48.2331L-24.4528 403.081L-0.690344 444.254Z" fill="#39C6FD"/>
<defs>
<filter id="filter0_f_95_143" x="-471.585" y="0.273438" width="975.411" height="975.412" filterUnits="userSpaceOnUse" color-interpolation-filters="sRGB">
<feFlood flood-opacity="0" result="BackgroundImageFix"/>
<feBlend mode="normal" in="SourceGraphic" in2="BackgroundImageFix" result="shape"/>
<feGaussianBlur stdDeviation="183" result="effect1_foregroundBlur_95_143"/>
</filter>
</defs>
</svg>
